<svg xmlns="http://www.w3.org/2000/svg" width="74" height="46" fill="none" aria-hidden="true" viewBox="0 0 74 46" style="height: 46px; width: 74px;"><g clip-path="url(#i8)"><path fill="#fff" d="M-1 4a4 4 0 0 1 4-4h68a4 4 0 0 1 4 4v39a4 4 0 0 1-4 4H3a4 4 0 0 1-4-4z" class="icon-color-background"></path><path fill="#AA85FF" d="M0 6.423h74v7.038H0z"></path><path stroke="#190052" stroke-width="2" d="M0 6.423h74v7.038H0z"></path><g clip-path="url(#i7)"><path stroke="#190052" stroke-linecap="square" stroke-width="1.5" d="m6.414 19.885 6.488 6.552m-.927-6.553 6.488 6.553m-.927-6.553 6.488 6.553m-.927-6.553 6.488 6.553m-.927-6.553 6.488 6.553m-1.159-6.553 6.488 6.553"></path></g><rect width="27.805" height="6.327" x="6.414" y="19.884" stroke="#190052" stroke-width="2" rx="1"></rect><path stroke="#190052" stroke-linecap="round" stroke-width="2" d="M6.414 31.635h29.89M6.414 36.38h35.683"></path><path fill="#190052" d="M3 1.5h68v-3H3zM73.5 4v39h3V4zM71 45.5H3v3h68zM.5 43V4h-3v39zM3 45.5A2.5 2.5 0 0 1 .5 43h-3A5.5 5.5 0 0 0 3 48.5zM73.5 43a2.5 2.5 0 0 1-2.5 2.5v3a5.5 5.5 0 0 0 5.5-5.5zM71 1.5A2.5 2.5 0 0 1 73.5 4h3A5.5 5.5 0 0 0 71-1.5zm-68-3A5.5 5.5 0 0 0-2.5 4h3A2.5 2.5 0 0 1 3 1.5z"></path></g><rect width="72" height="44" x="1" y="1" stroke="#000" stroke-width="2" rx="4"></rect><defs><clipPath id="i8"><rect width="72" height="44" x="1" y="1" fill="#fff" class="icon-color-background" rx="4"></rect></clipPath><clipPath id="i7"><rect width="27.805" height="6.327" x="6.414" y="19.884" fill="#fff" class="icon-color-background" rx="1"></rect></clipPath></defs></svg>