<svg xmlns="http://www.w3.org/2000/svg" width="24" height="24" fill="none" viewBox="0 0 24 24" data-test="government-id-prompt__image--camera" styles="[object Object]" class="InquiryGovernmentIdPromptView__ImgCamera-sc-nqsebi-4 enQUEy"><path stroke="white" stroke-linecap="round" stroke-linejoin="round" stroke-width="1.5" d="M22 18.222c0 .472-.192.924-.532 1.257a1.84 1.84 0 0 1-1.286.521H3.818a1.84 1.84 0 0 1-1.285-.52A1.76 1.76 0 0 1 2 18.221V8.444c0-.471.192-.923.533-1.257a1.84 1.84 0 0 1 1.285-.52h3.637L9.273 4h5.454l1.819 2.667h3.636c.482 0 .945.187 1.286.52.34.334.532.786.532 1.257z"></path><path stroke="white" stroke-linecap="round" stroke-linejoin="round" stroke-width="1.5" d="M12 16a3 3 0 1 0 0-6 3 3 0 0 0 0 6"></path></svg>