<svg xmlns="http://www.w3.org/2000/svg" width="155" height="105" fill="none" aria-hidden="true" viewBox="0 0 155 105" style="width: 149px; height: 100px; margin: 0px;"><path fill="#AA85FF" d="M46.545 45.137a9.47 9.47 0 0 1-4.986 2.773 9.6 9.6 0 0 1-5.704-.574l-.687-.292a5.94 5.94 0 0 0-5.104.208 5.8 5.8 0 0 0-1.967 1.697 5.65 5.65 0 0 0-1.01 2.37l-1.386 7.997q-2.396-13.602 2.678-20.694c5.074-7.09 17.269-9.638 20.475-1.839q7.882 2.636 8.225 10.08 2.57 4.532.914 12.453l-1.306-8.519a9.15 9.15 0 0 0-2.623-5.123 9.5 9.5 0 0 0-5.208-2.615l-.308-.05zM19 80.647a92.35 92.35 0 0 1 45.694 0v9.729H19z"></path><path stroke="#190052" stroke-linecap="round" stroke-linejoin="round" stroke-width="2.5" d="M75.62 36.17h38.741m-38.74 9.73h18.873m-18.873 9.729h28.807m6.953 31.134h6.954m-28.807 0h14.9m2.98-7.784h10.927m-20.86 0h2.979m-16.886 0h6.953m-56.899-2.763v3.26l.302.252a12.35 12.35 0 0 0 8.123 2.867 12.34 12.34 0 0 0 8.025-3.12v-2.963m-24.37-20.755v6.99c0 2.583.664 5.125 1.933 7.39a15.5 15.5 0 0 0 5.324 5.57l2.401 1.498a12.26 12.26 0 0 0 6.487 1.852c2.298 0 4.549-.643 6.487-1.853l2.403-1.498a15.5 15.5 0 0 0 5.323-5.57 15.1 15.1 0 0 0 1.933-7.39v-6.989M25.7 59.91h-.608m33.508 0h-.608M34.325 78.29c-3.635 0-7.25.518-10.738 1.534l-3.884 1.134zm16.45 0c3.636 0 7.252.518 10.738 1.534l3.884 1.134zm7.921-15.417.086-.02a3.1 3.1 0 0 0 1.693-1.075 3 3 0 0 0 .657-1.868c0-1.395-.97-2.608-2.35-2.944l-.086-.022zM47.25 45.137l2.002-2.127.308.049a9.5 9.5 0 0 1 5.208 2.615 9.15 9.15 0 0 1 2.624 5.123l1.305 8.52q1.657-7.922-.914-12.454-.342-7.444-8.225-10.08c-3.206-7.799-15.4-5.252-20.474 1.839q-5.076 7.093-2.678 20.694l1.386-7.997a5.65 5.65 0 0 1 1.01-2.37 5.8 5.8 0 0 1 1.966-1.697 5.935 5.935 0 0 1 5.104-.209l.688.292a9.6 9.6 0 0 0 5.704.575 9.47 9.47 0 0 0 4.986-2.773M26.405 62.873l-.086-.02a3.1 3.1 0 0 1-1.693-1.075 3 3 0 0 1-.657-1.868c0-1.395.97-2.608 2.35-2.944l.086-.022z"></path><path stroke="#190052" stroke-linecap="round" stroke-linejoin="round" stroke-width="2.5" d="M75.62 36.17h38.741m-38.74 9.73h18.873m-18.873 9.729h28.807m6.953 31.134h6.954m-28.807 0h14.9m2.98-7.784h10.927m-20.86 0h2.979m-16.886 0h6.953m-56.899-2.763v3.26l.302.252a12.35 12.35 0 0 0 8.123 2.867 12.34 12.34 0 0 0 8.025-3.12v-2.963m-24.37-20.755v6.99c0 2.583.664 5.125 1.933 7.39a15.5 15.5 0 0 0 5.324 5.57l2.401 1.498a12.26 12.26 0 0 0 6.487 1.852c2.298 0 4.549-.643 6.487-1.853l2.403-1.498a15.5 15.5 0 0 0 5.323-5.57 15.1 15.1 0 0 0 1.933-7.39v-6.989M25.7 59.91h-.608m33.508 0h-.608M34.325 78.29c-3.635 0-7.25.518-10.738 1.534l-3.884 1.134zm16.45 0c3.636 0 7.252.518 10.738 1.534l3.884 1.134zm7.921-15.417.086-.02a3.1 3.1 0 0 0 1.693-1.075 3 3 0 0 0 .657-1.868c0-1.395-.97-2.608-2.35-2.944l-.086-.022zM47.25 45.137l2.002-2.127.308.049a9.5 9.5 0 0 1 5.208 2.615 9.15 9.15 0 0 1 2.624 5.123l1.305 8.52q1.657-7.922-.914-12.454-.342-7.444-8.225-10.08c-3.206-7.799-15.4-5.252-20.474 1.839q-5.076 7.093-2.678 20.694l1.386-7.997a5.65 5.65 0 0 1 1.01-2.37 5.8 5.8 0 0 1 1.966-1.697 5.935 5.935 0 0 1 5.104-.209l.688.292a9.6 9.6 0 0 0 5.704.575 9.47 9.47 0 0 0 4.986-2.773M26.405 62.873l-.086-.02a3.1 3.1 0 0 1-1.693-1.075 3 3 0 0 1-.657-1.868c0-1.395.97-2.608 2.35-2.944l.086-.022z"></path><path stroke="#190052" stroke-linecap="square" stroke-linejoin="round" stroke-width="2.5" d="M116.069 20H12C6.477 20 2 24.477 2 30v63c0 5.523 4.477 10 10 10h113c5.523 0 10-4.477 10-10V40.989"></path><circle cx="135" cy="20" r="18" stroke="#190052" stroke-width="2.5" class="icon-color-background"></circle><path stroke="#190052" stroke-linecap="round" stroke-linejoin="round" stroke-width="2.5" d="m141 14-12 12M129 14l12 12"></path></svg>