<svg width="16" height="16" viewBox="0 0 16 16" fill="none" xmlns="http://www.w3.org/2000/svg" class="pds-icon" title="CircleInfoIcon" aria-hidden="true"><g clip-path="url(#i2)"><path d="M7.375 10.667a.625.625 0 1 0 1.25 0h-1.25ZM8.625 8a.625.625 0 1 0-1.25 0h1.25ZM8 4.708a.625.625 0 0 0 0 1.25v-1.25Zm.007 1.25a.625.625 0 1 0 0-1.25v1.25ZM14.042 8A6.042 6.042 0 0 1 8 14.042v1.25A7.292 7.292 0 0 0 15.292 8h-1.25ZM8 14.042A6.042 6.042 0 0 1 1.958 8H.708A7.292 7.292 0 0 0 8 15.292v-1.25ZM1.958 8A6.042 6.042 0 0 1 8 1.958V.708A7.292 7.292 0 0 0 .708 8h1.25ZM8 1.958A6.042 6.042 0 0 1 14.042 8h1.25A7.292 7.292 0 0 0 8 .708v1.25Zm.625 8.709V8h-1.25v2.667h1.25ZM8 5.958h.007v-1.25H8v1.25Z" fill="white"></path></g><defs><clipPath id="i2"><path fill="white" d="M0 0h16v16H0z"></path></clipPath></defs></svg>